<svg width="120" height="120" viewBox="0 0 120 120" fill="none" xmlns="http://www.w3.org/2000/svg">
<path fill-rule="evenodd" clip-rule="evenodd" d="M91.4062 0C108.75 0 120 11.25 120 28.5938V91.4062C120 108.75 108.75 120 91.4062 120H28.5938C11.25 120 0 108.75 0 91.4062V28.5938C0 11.25 11.25 0 28.5938 0H91.4062Z" fill="url(#paint0_linear)"/>
<path fill-rule="evenodd" clip-rule="evenodd" d="M43.5881 25H43.5734H23.0183H23.0036C21.362 25 20.4195 26.8685 21.3952 28.1887L43.5413 58.1561C44.073 58.99 44.0636 60.0612 43.5133 60.8867L42.7684 62.0041L40.1887 65.5L39.5787 66.33L39.5687 66.34V66.35H39.5587L21.4387 90.891H21.4287C21.423 90.8962 21.4187 90.911 21.4187 90.911C20.4429 92.2312 21.3623 94.131 23.004 94.131H43.5737C46.1114 94.131 48.4987 92.9269 50.0071 90.8861L52.0287 88.151L57.5087 80.731C57.5137 80.726 57.5162 80.721 57.5187 80.716C57.5212 80.711 57.5237 80.706 57.5287 80.701L58.4287 79.491L58.8687 78.891L58.8761 78.881L58.8835 78.891L69.7935 64.13L69.7973 64.1292L69.8006 64.1271L69.8027 64.1238L69.8035 64.12L71.416 61.9381C72.4604 60.5248 72.4602 58.5954 71.4153 57.1824L66.6735 50.77C66.6735 50.76 66.6635 50.76 66.6535 50.75L50.0218 28.2453C48.5134 26.2042 46.1261 25 43.5881 25ZM45.3321 60.5801L58.8687 78.891L45.3324 60.5796L45.3321 60.5801Z" fill="url(#paint1_linear)"/>
<path fill-rule="evenodd" clip-rule="evenodd" d="M105.625 57.1824C106.67 58.5954 106.67 60.5249 105.626 61.9382L104.013 64.12C104.013 64.1226 104.012 64.1252 104.01 64.127C104.009 64.1282 104.008 64.129 104.006 64.1295C104.005 64.1298 104.004 64.13 104.003 64.13L93.0933 78.891L79.4559 60.4438L79.4535 60.447L93.0933 78.891L92.6533 79.491L91.7533 80.701C91.7483 80.706 91.7458 80.711 91.7433 80.716C91.7408 80.721 91.7383 80.726 91.7333 80.731L86.2533 88.151L84.2317 90.8861C82.7233 92.9269 80.3361 94.131 77.7983 94.131H57.2286C55.5869 94.131 54.6675 92.2312 55.6433 90.911C55.6443 90.9068 55.6461 90.9029 55.6487 90.8995C55.6513 90.896 55.6546 90.8931 55.6583 90.891L73.7783 66.351H73.7883V66.341L73.7983 66.331L74.4083 65.501L76.3066 62.928L77.621 60.825C78.1276 60.0143 78.1276 58.9857 77.621 58.175L76.7543 56.7883L55.6197 28.1896C54.6441 26.8694 55.5866 25.001 57.2282 25.001H77.798C80.3359 25.001 82.7233 26.2052 84.2317 28.2463L100.863 50.751C100.867 50.7548 100.871 50.7572 100.874 50.7592C100.879 50.7625 100.883 50.7648 100.883 50.771L105.625 57.1824Z" fill="url(#paint2_linear)"/>
<defs>
<linearGradient id="paint0_linear" x1="0" y1="0" x2="0" y2="120" gradientUnits="userSpaceOnUse">
<stop stop-color="white"/>
<stop offset="1" stop-color="white"/>
</linearGradient>
<linearGradient id="paint1_linear" x1="46.8216" y1="59.9995" x2="46.5997" y2="94.131" gradientUnits="userSpaceOnUse">
<stop stop-color="#59D839"/>
<stop offset="1" stop-color="#36B33C"/>
</linearGradient>
<linearGradient id="paint2_linear" x1="81.0387" y1="60" x2="80.8167" y2="94.131" gradientUnits="userSpaceOnUse">
<stop stop-color="#59D839"/>
<stop offset="1" stop-color="#36B33C"/>
</linearGradient>
</defs>
</svg>
