<svg width="256" height="256" viewBox="0 0 256 256" fill="none" xmlns="http://www.w3.org/2000/svg">
<path fill-rule="evenodd" clip-rule="evenodd" d="M106.375 116.286L102.575 125.85C100.89 130.09 102.962 134.893 107.201 136.577C111.441 138.262 116.244 136.191 117.928 131.951L130.847 99.4389C130.91 99.2802 130.968 99.1208 131.02 98.9607L144.268 65.6201C148.346 55.3551 159.974 50.3401 170.239 54.4188C171.856 55.0613 173.343 55.8911 174.684 56.8733C178.151 59.036 181.011 62.2483 182.729 66.2946L201.173 109.725L201.178 109.737L202.694 113.306L213.093 137.793C213.51 138.584 213.879 139.413 214.194 140.277C214.265 140.472 214.332 140.667 214.397 140.863L214.49 141.083L214.47 141.091C217.683 151.252 212.227 162.276 201.976 166.007C191.451 169.838 179.855 164.53 176.078 154.15C174.316 149.31 174.565 144.222 176.4 139.781L176.393 139.764L179.601 131.691C181.356 127.274 179.198 122.27 174.781 120.515C170.363 118.76 165.36 120.918 163.604 125.335L163.323 126.043L163.312 126.016L138.015 189.681C137.482 191.022 136.82 192.275 136.049 193.428C133.949 196.862 130.797 199.697 126.81 201.39C116.643 205.708 104.901 200.966 100.583 190.799L88.2839 161.837L79.5919 183.713C75.5131 193.978 63.8852 198.993 53.6201 194.914C43.3551 190.835 38.3401 179.207 42.4188 168.942L69.0056 102.031C73.0843 91.7658 84.7122 86.7508 94.9773 90.8296C105.071 94.8401 110.088 106.15 106.375 116.286Z" fill="#242424"/>
</svg>
